<svg xmlns="http://www.w3.org/2000/svg" aria-hidden="true" style="position:absolute;width:0;height:0;overflow:hidden">
  <defs>
    <symbol id="plus" viewBox="0 0 32 32">
       <path stroke-linecap="round" stroke-linejoin="round" stroke-width="2" d="M16 5v22M5 16h22"/>
    </symbol>
    <symbol id="archive-add" viewBox="0 0 32 32">
       <path stroke-linecap="round" stroke-linejoin="round" stroke-width="2" d="M19.333 14.2h-6.667M16 10.947v6.667"/>
       <path stroke-linecap="round" stroke-linejoin="round" stroke-width="2" d="M22.427 2.667H9.574a5.159 5.159 0 0 0-5.147 5.147v18.787c0 2.4 1.72 3.413 3.827 2.253l6.507-3.613c.693-.387 1.813-.387 2.493 0l6.507 3.613c2.107 1.173 3.827.16 3.827-2.253V7.814c-.013-2.827-2.32-5.147-5.16-5.147z"/>
    </symbol>
    <symbol id="archive-minus" viewBox="0 0 32 32">
      <path stroke-linecap="round" stroke-linejoin="round" stroke-width="2" d="M19.333 14.2h-6.667"/>
      <path stroke-linecap="round" stroke-linejoin="round" stroke-width="2" d="M22.427 2.667H9.574a5.159 5.159 0 0 0-5.147 5.147v18.787c0 2.4 1.72 3.413 3.827 2.253l6.507-3.613c.693-.387 1.813-.387 2.493 0l6.507 3.613c2.107 1.173 3.827.16 3.827-2.253V7.814c-.013-2.827-2.32-5.147-5.16-5.147z"/>
    </symbol>
    <symbol id="arrow-right" viewBox="0 0 32 32">
      <path stroke-linecap="round" stroke-linejoin="round" stroke-miterlimit="10" stroke-width="2" d="m11.88 26.56 8.693-8.693a2.647 2.647 0 0 0 0-3.733L11.88 5.441"/>
    </symbol>
    <symbol id="arrow-back" viewBox="0 0 32 32">
      <path d="M23.025 15.129c0.223 0.223 0.361 0.531 0.361 0.871s-0.138 0.648-0.361 0.871l-4.923 4.923c-0.223 0.223-0.531 0.361-0.871 0.361-0.68 0-1.232-0.551-1.232-1.232 0-0.34 0.138-0.648 0.361-0.871v0l2.823-2.821h-9.337c-0.68 0-1.231-0.551-1.231-1.231s0.551-1.231 1.231-1.231v0h9.337l-2.823-2.821c-0.215-0.222-0.348-0.524-0.348-0.858 0-0.68 0.551-1.232 1.232-1.232 0.334 0 0.637 0.133 0.859 0.349l4.923 4.923z"/>
    </symbol>
    <symbol id="bell" viewBox="0 0 32 32">
      <path stroke-linecap="round" stroke-linejoin="round" stroke-width="2" d="M26 24H6c2-4 2-7 2-11a8 8 0 1 1 16 0c0 4 0 7 2 11z"/>
      <path stroke-linecap="round" stroke-linejoin="round" stroke-width="2" d="M12 24a4 4 0 0 0 8 0"/>
    </symbol>
    <symbol id="book" viewBox="0 0 32 32">
      <path stroke-linecap="round" stroke-linejoin="round" stroke-width="2" d="M16 7c-4-2-8-2-12 0v17c4-2 8-2 12 0"/>
      <path stroke-linecap="round" stroke-linejoin="round" stroke-width="2" d="M16 7c4-2 8-2 12 0v17c-4-2-8-2-12 0"/>
      <path stroke-linecap="round" stroke-linejoin="round" stroke-width="2" d="M16 7v17"/>
    </symbol>
    <symbol id="calendar" viewBox="0 0 32 32">
      <path stroke-linecap="round" stroke-linejoin="round" stroke-miterlimit="10" stroke-width="2" d="M10.667 2.667v4M21.333 2.667v4M4.667 12.12h22.667M28 11.333v11.333c0 4-2 6.667-6.667 6.667H10.666c-4.667 0-6.667-2.667-6.667-6.667V11.333c0-4 2-6.667 6.667-6.667h10.667C26 4.666 28 7.333 28 11.333z" style="stroke:var(--color1, #fff)"/>
      <path stroke-linecap="round" stroke-linejoin="round" stroke-width="2.667" d="M20.926 18.267h.012M20.926 22.267h.012M15.994 18.267h.012M15.994 22.267h.012M11.059 18.267h.012M11.059 22.267h.012" style="stroke:var(--color1, #fff)"/>
    </symbol>
    <symbol id="document" viewBox="0 0 32 32">
      <path stroke-linecap="round" stroke-linejoin="round" stroke-width="2" d="M13.333 8h5.333c2.667 0 2.667-1.333 2.667-2.667 0-2.667-1.333-2.667-2.667-2.667h-5.333c-1.333 0-2.667 0-2.667 2.667S11.999 8 13.333 8z"/>
      <path stroke-linecap="round" stroke-linejoin="round" stroke-width="2" d="M21.333 5.36C25.773 5.6 28 7.24 28 13.333v8c0 5.333-1.333 8-8 8h-8c-6.667 0-8-2.667-8-8v-8C4 7.253 6.227 5.6 10.667 5.36"/>
    </symbol>
    <symbol id="edit" viewBox="0 0 32 32">
      <path stroke-linecap="round" stroke-linejoin="round" stroke-width="2" d="M14.667 2.667H12c-6.667 0-9.333 2.667-9.333 9.333v8c0 6.667 2.667 9.333 9.333 9.333h8c6.667 0 9.333-2.667 9.333-9.333v-2.667"/>
      <path stroke-linecap="round" stroke-linejoin="round" stroke-width="2" d="M21.387 4.027 10.88 14.534c-.4.4-.8 1.187-.88 1.76l-.573 4.013c-.213 1.453.813 2.467 2.267 2.267l4.013-.573c.56-.08 1.347-.48 1.76-.88l10.507-10.507c1.813-1.813 2.667-3.92 0-6.587s-4.773-1.813-6.587 0z"/>
      <path stroke-linecap="round" stroke-linejoin="round" stroke-width="2" d="M19.88 5.533a9.526 9.526 0 0 0 6.587 6.587"/>
    </symbol>
    <symbol id="eye-hide" viewBox="0 0 32 32">
      <path d="M6.74 4.327a1.013 1.013 0 0 0-1.084-.279.99.99 0 0 0-.57.518.989.989 0 0 0-.032.77c.046.124.116.238.206.335l2.405 2.646c-4.54 2.786-6.492 7.081-6.579 7.276a.997.997 0 0 0 0 .812c.044.099 1.103 2.446 3.456 4.8 3.136 3.135 7.098 4.793 11.457 4.793a15.889 15.889 0 0 0 6.509-1.354l2.75 3.026a1.013 1.013 0 0 0 .695.335.992.992 0 0 0 .726-.259 1.005 1.005 0 0 0 .326-.698 1.006 1.006 0 0 0-.267-.723l-19.999-22zm5.916 9.48 5.209 5.731a3.995 3.995 0 0 1-4.822-.85 4 4 0 0 1-.386-4.882zM16 24c-3.848 0-7.209-1.399-9.991-4.156A16.67 16.67 0 0 1 3.125 16c.586-1.099 2.458-4.174 5.919-6.172l2.25 2.469a6.002 6.002 0 0 0 3.937 9.641 5.996 5.996 0 0 0 4.02-.89l1.841 2.025a14.024 14.024 0 0 1-5.093.929zm.75-11.929a1.001 1.001 0 0 1 .375-1.965 6.019 6.019 0 0 1 4.846 5.33 1 1 0 0 1-.903 1.088.737.737 0 0 1-.094 0 1.004 1.004 0 0 1-1-.907 4.007 4.007 0 0 0-3.225-3.546zm14.16 4.336c-.053.118-1.319 2.921-4.17 5.475a.994.994 0 0 1-1.108.168 1.003 1.003 0 0 1-.569-.967.99.99 0 0 1 .343-.693 16.588 16.588 0 0 0 3.475-4.393 16.628 16.628 0 0 0-2.89-3.846C23.209 9.396 19.847 7.997 16 7.997a14.86 14.86 0 0 0-2.42.196.995.995 0 0 1-.751-.168.991.991 0 0 1-.409-.652.995.995 0 0 1 .829-1.152 16.78 16.78 0 0 1 2.75-.224c4.36 0 8.321 1.657 11.457 4.794 2.354 2.354 3.413 4.703 3.456 4.801a.997.997 0 0 1 0 .812h-.004z"/>
    </symbol>
    <symbol id="eye" viewBox="0 0 32 32">
      <path d="M30.914 15.595c-.044-.099-1.103-2.447-3.456-4.801C24.322 7.658 20.361 6 16.001 6S7.68 7.657 4.544 10.794C2.19 13.148 1.127 15.5 1.088 15.595a.997.997 0 0 0 0 .812c.044.099 1.103 2.446 3.456 4.8C7.68 24.342 11.642 26 16.001 26s8.321-1.657 11.457-4.793c2.354-2.354 3.413-4.701 3.456-4.8a.997.997 0 0 0 0-.812zM16 24c-3.848 0-7.209-1.399-9.991-4.156A16.67 16.67 0 0 1 3.125 16a16.67 16.67 0 0 1 2.884-3.844C8.792 9.398 12.153 8 16 8s7.209 1.399 9.991 4.156A16.695 16.695 0 0 1 28.881 16c-.901 1.683-4.827 8-12.881 8zm0-14a5.998 5.998 0 0 0-4.242 10.243 5.996 5.996 0 0 0 6.539 1.301 6.004 6.004 0 0 0 3.704-5.543 6.007 6.007 0 0 0-6-6zm0 10a4.002 4.002 0 0 1-3.923-4.78 4.006 4.006 0 0 1 3.143-3.143A3.996 3.996 0 0 1 20 16a4.001 4.001 0 0 1-4 4z" />
    </symbol>
    <symbol id="heart" viewBox="0 0 32 32">
      <path stroke-linecap="round" stroke-linejoin="round" stroke-width="2.5" d="M16 6.5c0 0 3-2.5 6-2.5 4 0 7 3 7 7 0 6-8 12-13 17 -5-5-13-11-13-17 0-4 3-7 7-7 3 0 6 2.5 6 2.5z"/>
    </symbol>
    <symbol id="history" viewBox="0 0 24 24" stroke-width="1.5" stroke-linecap="round" stroke-linejoin="round">
      <path d="M3 12a9 9 0 1 0 9-9 9.75 9.75 0 0 0-6.74 2.74L3 8"/>
      <path d="M3 3v5h5"/>
      <path d="M12 7v5l4 2"/>
    </symbol>
    <symbol id="house" viewBox="0 0 32 32">
      <path stroke-linecap="round" stroke-linejoin="round" stroke-width="2" d="M6 28V14L16 5l10 9v14H6z" />
    </symbol>
    <symbol id="logo" viewBox="0 0 32 32">
      <path stroke-linecap="round" stroke-linejoin="round" stroke-width="2" d="M12 29.333h8c6.667 0 9.333-2.667 9.333-9.333v-8c0-6.667-2.667-9.333-9.333-9.333h-8c-6.667 0-9.333 2.667-9.333 9.333v8c0 6.667 2.667 9.333 9.333 9.333z"/>
      <path stroke-linecap="round" stroke-linejoin="round" stroke-width="2" d="M22.667 3.253V16.56c0 2.627-1.88 3.653-4.187 2.267l-1.76-1.053c-.4-.24-1.04-.24-1.44 0l-1.76 1.053c-2.307 1.373-4.187.36-4.187-2.267V3.253"/>
    </symbol>
    <symbol id="save-1" viewBox="0 0 32 32">
      <path stroke-linecap="round" stroke-linejoin="round" stroke-width="2" d="M16 2.667v8L18.667 8M16 10.667 13.333 8" />
      <path stroke-linecap="round" stroke-linejoin="round" stroke-miterlimit="10" stroke-width="2" d="M9.333 16C4 16 4 18.387 4 21.333v1.333c0 3.68 0 6.667 6.667 6.667h10.667c5.333 0 6.667-2.987 6.667-6.667v-1.333c0-2.947 0-5.333-5.333-5.333-1.333 0-1.707.28-2.4.8l-1.36 1.44c-1.573 1.68-4.24 1.68-5.827 0l-1.347-1.44c-.693-.52-1.067-.8-2.4-.8z" />
      <path stroke-linecap="round" stroke-linejoin="round" stroke-miterlimit="10" stroke-width="2" d="M6.667 16v-5.333c0-2.68 0-4.893 4-5.28M25.333 16v-5.333c0-2.68 0-4.893-4-5.28" />
    </symbol>
    <symbol id="save-2" viewBox="0 0 32 32">
      <path stroke-linecap="round" stroke-linejoin="round" stroke-width="2.4" d="M6 4h20v24l-10-8-10 8z"/>
    </symbol>
    <symbol id="search" viewBox="0 0 32 32">
        <path stroke-linecap="round" stroke-linejoin="round" stroke-width="3" d="M14.375 4c5.73 0 10.375 4.645 10.375 10.375S20.105 24.75 14.375 24.75 4 20.105 4 14.375 8.645 4 14.375 4ZM27.5 27.5 25 25"/>
    </symbol>
    <symbol id="setting" viewBox="0 0 32 32">
      <path stroke-linecap="round" stroke-linejoin="round" stroke-miterlimit="10" stroke-width="2" d="M6.667 13.333h2.667c2.667 0 4-1.333 4-4V6.666c0-2.667-1.333-4-4-4H6.667c-2.667 0-4 1.333-4 4v2.667c0 2.667 1.333 4 4 4zM22.667 13.333h2.667c2.667 0 4-1.333 4-4V6.666c0-2.667-1.333-4-4-4h-2.667c-2.667 0-4 1.333-4 4v2.667c0 2.667 1.333 4 4 4zM22.667 29.333h2.667c2.667 0 4-1.333 4-4v-2.667c0-2.667-1.333-4-4-4h-2.667c-2.667 0-4 1.333-4 4v2.667c0 2.667 1.333 4 4 4zM6.667 29.333h2.667c2.667 0 4-1.333 4-4v-2.667c0-2.667-1.333-4-4-4H6.667c-2.667 0-4 1.333-4 4v2.667c0 2.667 1.333 4 4 4z" />
    </symbol>
    <symbol id="share" viewBox="0 0 32 32">
      <circle cx="7" cy="16" r="4" stroke-width="2.4" />
      <circle cx="25" cy="7" r="4" stroke-width="2.4" />
      <circle cx="25" cy="25" r="4" stroke-width="2.4" />
      <path stroke-linecap="round" stroke-linejoin="round" stroke-width="2.4" d="M10.6 14.2 L21.4 8.8 M10.6 17.8 L21.4 23.2"/>
    </symbol>
    <symbol id="star" viewBox="0 0 32 32">
      <path stroke-linecap="round" stroke-linejoin="round" stroke-width="2" d="M16 3.5 l4.3 8.8 9.7 1.4 -7 6.8 1.7 9.6 -8.7-4.5 -8.7 4.5 1.7-9.6 -7-6.8 9.7-1.4 z"/>
    </symbol>
    <symbol id="close" viewBox="0 0 32 32">
      <path stroke-linecap="round" stroke-linejoin="round" stroke-width="2" d="M8 8 l16 16 M24 8 L8 24"/>
    </symbol>
  </defs>
</svg>
