<svg xmlns="http://www.w3.org/2000/svg" aria-hidden="true" style="position:absolute;width:0;height:0;overflow:hidden">
  <defs>
    <symbol id="archive-add" viewBox="0 0 32 32">
      <path stroke-linecap="round" stroke-linejoin="round" stroke-miterlimit="10" stroke-width="2" d="M19.333 14.2h-6.667M16 10.947v6.667" style="stroke:var(--color1, #fff)"/>
      <path stroke-linecap="round" stroke-linejoin="round" stroke-width="2" d="M22.427 2.667H9.574a5.159 5.159 0 0 0-5.147 5.147v18.787c0 2.4 1.72 3.413 3.827 2.253l6.507-3.613c.693-.387 1.813-.387 2.493 0l6.507 3.613c2.107 1.173 3.827.16 3.827-2.253V7.814c-.013-2.827-2.32-5.147-5.16-5.147z" style="stroke:var(--color1, #fff)"/>
    </symbol>
    <symbol id="archive-minus" viewBox="0 0 32 32">
      <path stroke-linecap="round" stroke-linejoin="round" stroke-miterlimit="10" stroke-width="2" d="M19.333 14.2h-6.667" style="stroke:var(--color1, #fff)"/>
      <path stroke-linecap="round" stroke-linejoin="round" stroke-width="2" d="M22.427 2.667H9.574a5.159 5.159 0 0 0-5.147 5.147v18.787c0 2.4 1.72 3.413 3.827 2.253l6.507-3.613c.693-.387 1.813-.387 2.493 0l6.507 3.613c2.107 1.173 3.827.16 3.827-2.253V7.814c-.013-2.827-2.32-5.147-5.16-5.147z" style="stroke:var(--color1, #fff)"/>
    </symbol>
    <symbol id="arrow-right" viewBox="0 0 32 32">
      <path stroke-linecap="round" stroke-linejoin="round" stroke-miterlimit="10" stroke-width="2" d="m11.88 26.56 8.693-8.693a2.647 2.647 0 0 0 0-3.733L11.88 5.441" style="stroke:var(--color1, #fff)"/>
    </symbol>
    <symbol id="arrow-back" viewBox="0 0 32 32">
      <path d="M23.025 15.129c0.223 0.223 0.361 0.531 0.361 0.871s-0.138 0.648-0.361 0.871l-4.923 4.923c-0.223 0.223-0.531 0.361-0.871 0.361-0.68 0-1.232-0.551-1.232-1.232 0-0.34 0.138-0.648 0.361-0.871v0l2.823-2.821h-9.337c-0.68 0-1.231-0.551-1.231-1.231s0.551-1.231 1.231-1.231v0h9.337l-2.823-2.821c-0.215-0.222-0.348-0.524-0.348-0.858 0-0.68 0.551-1.232 1.232-1.232 0.334 0 0.637 0.133 0.859 0.349l4.923 4.923z"/>
    </symbol>
    <symbol id="bell" viewBox="0 0 32 32">
      <path d="M27.725 21.993C27.031 20.798 26 17.417 26 13a10.001 10.001 0 0 0-20 0c0 4.417-1.032 7.797-1.726 8.993A2 2 0 0 0 6 25.001h5.101A4.997 4.997 0 0 0 16 29a5 5 0 0 0 4.899-3.999H26a1.998 1.998 0 0 0 1.725-3.007zM16 27a2.998 2.998 0 0 1-2.827-2h5.655a3.001 3.001 0 0 1-2.827 2zM6 23c.963-1.655 2-5.49 2-10a8 8 0 1 1 16 0c0 4.506 1.035 8.341 2 10H6z" style="fill:var(--color1, #fff)"/>
    </symbol>
    <symbol id="book-open" viewBox="0 0 32 32">
      <path d="M29 6h-9a5.002 5.002 0 0 0-4 2 5.003 5.003 0 0 0-4-2H3a.997.997 0 0 0-1 1v18a.997.997 0 0 0 1 1h9a3.004 3.004 0 0 1 3 3 .997.997 0 0 0 1 1 .997.997 0 0 0 1-1 3.004 3.004 0 0 1 3-3h9a.997.997 0 0 0 1-1V7a.997.997 0 0 0-1-1zM12 24H4V8h8a3.004 3.004 0 0 1 3 3v14a4.973 4.973 0 0 0-3-1zm16 0h-8a4.973 4.973 0 0 0-3 1V11a3.004 3.004 0 0 1 3-3h8v16z" style="fill:var(--color1, #fff)"/>
    </symbol>
    <symbol id="calendar" viewBox="0 0 32 32">
      <path stroke-linecap="round" stroke-linejoin="round" stroke-miterlimit="10" stroke-width="2" d="M10.667 2.667v4M21.333 2.667v4M4.667 12.12h22.667M28 11.333v11.333c0 4-2 6.667-6.667 6.667H10.666c-4.667 0-6.667-2.667-6.667-6.667V11.333c0-4 2-6.667 6.667-6.667h10.667C26 4.666 28 7.333 28 11.333z" style="stroke:var(--color1, #fff)"/>
      <path stroke-linecap="round" stroke-linejoin="round" stroke-width="2.667" d="M20.926 18.267h.012M20.926 22.267h.012M15.994 18.267h.012M15.994 22.267h.012M11.059 18.267h.012M11.059 22.267h.012" style="stroke:var(--color1, #fff)"/>
    </symbol>
    <symbol id="document-normal" viewBox="0 0 32 32">
      <path stroke-linecap="round" stroke-linejoin="round" stroke-miterlimit="10" stroke-width="2" d="M13.333 8h5.333c2.667 0 2.667-1.333 2.667-2.667 0-2.667-1.333-2.667-2.667-2.667h-5.333c-1.333 0-2.667 0-2.667 2.667S11.999 8 13.333 8z" style="stroke:var(--color1, #fff)"/>
      <path stroke-linecap="round" stroke-linejoin="round" stroke-miterlimit="10" stroke-width="2" d="M21.333 5.36C25.773 5.6 28 7.24 28 13.333v8c0 5.333-1.333 8-8 8h-8c-6.667 0-8-2.667-8-8v-8C4 7.253 6.227 5.6 10.667 5.36" style="stroke:var(--color1, #fff)"/>
    </symbol>
    <symbol id="edit" viewBox="0 0 32 32">
      <path stroke-linecap="round" stroke-linejoin="round" stroke-width="2" d="M14.667 2.667H12c-6.667 0-9.333 2.667-9.333 9.333v8c0 6.667 2.667 9.333 9.333 9.333h8c6.667 0 9.333-2.667 9.333-9.333v-2.667" style="stroke:var(--color1, #fff)"/>
      <path stroke-linecap="round" stroke-linejoin="round" stroke-miterlimit="10" stroke-width="2" d="M21.387 4.027 10.88 14.534c-.4.4-.8 1.187-.88 1.76l-.573 4.013c-.213 1.453.813 2.467 2.267 2.267l4.013-.573c.56-.08 1.347-.48 1.76-.88l10.507-10.507c1.813-1.813 2.667-3.92 0-6.587s-4.773-1.813-6.587 0z" style="stroke:var(--color1, #fff)"/>
      <path stroke-linecap="round" stroke-linejoin="round" stroke-miterlimit="10" stroke-width="2" d="M19.88 5.533a9.526 9.526 0 0 0 6.587 6.587" style="stroke:var(--color1, #fff)"/>
    </symbol>
    <symbol id="eye-hide" viewBox="0 0 32 32">
      <path d="M6.74 4.327a1.013 1.013 0 0 0-1.084-.279.99.99 0 0 0-.57.518.989.989 0 0 0-.032.77c.046.124.116.238.206.335l2.405 2.646c-4.54 2.786-6.492 7.081-6.579 7.276a.997.997 0 0 0 0 .812c.044.099 1.103 2.446 3.456 4.8 3.136 3.135 7.098 4.793 11.457 4.793a15.889 15.889 0 0 0 6.509-1.354l2.75 3.026a1.013 1.013 0 0 0 .695.335.992.992 0 0 0 .726-.259 1.005 1.005 0 0 0 .326-.698 1.006 1.006 0 0 0-.267-.723l-19.999-22zm5.916 9.48 5.209 5.731a3.995 3.995 0 0 1-4.822-.85 4 4 0 0 1-.386-4.882zM16 24c-3.848 0-7.209-1.399-9.991-4.156A16.67 16.67 0 0 1 3.125 16c.586-1.099 2.458-4.174 5.919-6.172l2.25 2.469a6.002 6.002 0 0 0 3.937 9.641 5.996 5.996 0 0 0 4.02-.89l1.841 2.025a14.024 14.024 0 0 1-5.093.929zm.75-11.929a1.001 1.001 0 0 1 .375-1.965 6.019 6.019 0 0 1 4.846 5.33 1 1 0 0 1-.903 1.088.737.737 0 0 1-.094 0 1.004 1.004 0 0 1-1-.907 4.007 4.007 0 0 0-3.225-3.546zm14.16 4.336c-.053.118-1.319 2.921-4.17 5.475a.994.994 0 0 1-1.108.168 1.003 1.003 0 0 1-.569-.967.99.99 0 0 1 .343-.693 16.588 16.588 0 0 0 3.475-4.393 16.628 16.628 0 0 0-2.89-3.846C23.209 9.396 19.847 7.997 16 7.997a14.86 14.86 0 0 0-2.42.196.995.995 0 0 1-.751-.168.991.991 0 0 1-.409-.652.995.995 0 0 1 .829-1.152 16.78 16.78 0 0 1 2.75-.224c4.36 0 8.321 1.657 11.457 4.794 2.354 2.354 3.413 4.703 3.456 4.801a.997.997 0 0 1 0 .812h-.004z"/>
    </symbol>
    <symbol id="eye" viewBox="0 0 32 32">
      <path d="M30.914 15.595c-.044-.099-1.103-2.447-3.456-4.801C24.322 7.658 20.361 6 16.001 6S7.68 7.657 4.544 10.794C2.19 13.148 1.127 15.5 1.088 15.595a.997.997 0 0 0 0 .812c.044.099 1.103 2.446 3.456 4.8C7.68 24.342 11.642 26 16.001 26s8.321-1.657 11.457-4.793c2.354-2.354 3.413-4.701 3.456-4.8a.997.997 0 0 0 0-.812zM16 24c-3.848 0-7.209-1.399-9.991-4.156A16.67 16.67 0 0 1 3.125 16a16.67 16.67 0 0 1 2.884-3.844C8.792 9.398 12.153 8 16 8s7.209 1.399 9.991 4.156A16.695 16.695 0 0 1 28.881 16c-.901 1.683-4.827 8-12.881 8zm0-14a5.998 5.998 0 0 0-4.242 10.243 5.996 5.996 0 0 0 6.539 1.301 6.004 6.004 0 0 0 3.704-5.543 6.007 6.007 0 0 0-6-6zm0 10a4.002 4.002 0 0 1-3.923-4.78 4.006 4.006 0 0 1 3.143-3.143A3.996 3.996 0 0 1 20 16a4.001 4.001 0 0 1-4 4z" />
    </symbol>
    <symbol id="heart" viewBox="0 0 32 32">
      <path d="M27.875 7.125a7.262 7.262 0 0 0-10.24-.013L16 8.631l-1.636-1.524a7.249 7.249 0 0 0-12.37 5.145 7.25 7.25 0 0 0 2.131 5.124l11.169 11.332a.991.991 0 0 0 .712.299 1.007 1.007 0 0 0 .712-.299l11.156-11.332a7.25 7.25 0 0 0 0-10.25zm-1.419 8.845L16 26.575 5.537 15.96a5.25 5.25 0 1 1 7.426-7.426l.025.025 2.331 2.169a1 1 0 0 0 1.362 0l2.356-2.194a5.25 5.25 0 0 1 8.96 3.719 5.252 5.252 0 0 1-1.54 3.712l-.001.005z" />
    </symbol>
    <symbol id="history" viewBox="0 0 24 24" stroke-width="1.5" stroke-linecap="round" stroke-linejoin="round">
      <path d="M3 12a9 9 0 1 0 9-9 9.75 9.75 0 0 0-6.74 2.74L3 8"/>
      <path d="M3 3v5h5"/>
      <path d="M12 7v5l4 2"/>
    </symbol>
    <symbol id="house" viewBox="0 0 32 32">
      <path stroke-linecap="round" stroke-linejoin="round" stroke-width="2" d="M6 28V14L16 5l10 9v14H6z" />
    </symbol>
    <symbol id="logo" viewBox="0 0 32 32">
      <path stroke-linecap="round" stroke-linejoin="round" stroke-width="2" d="M12 29.333h8c6.667 0 9.333-2.667 9.333-9.333v-8c0-6.667-2.667-9.333-9.333-9.333h-8c-6.667 0-9.333 2.667-9.333 9.333v8c0 6.667 2.667 9.333 9.333 9.333z"/>
      <path stroke-linecap="round" stroke-linejoin="round" stroke-width="2" d="M22.667 3.253V16.56c0 2.627-1.88 3.653-4.187 2.267l-1.76-1.053c-.4-.24-1.04-.24-1.44 0l-1.76 1.053c-2.307 1.373-4.187.36-4.187-2.267V3.253"/>
    </symbol>
    <symbol id="save-1" viewBox="0 0 32 32">
      <path stroke-linecap="round" stroke-linejoin="round" stroke-width="2" d="M16 2.667v8L18.667 8M16 10.667 13.333 8" />
      <path stroke-linecap="round" stroke-linejoin="round" stroke-miterlimit="10" stroke-width="2" d="M9.333 16C4 16 4 18.387 4 21.333v1.333c0 3.68 0 6.667 6.667 6.667h10.667c5.333 0 6.667-2.987 6.667-6.667v-1.333c0-2.947 0-5.333-5.333-5.333-1.333 0-1.707.28-2.4.8l-1.36 1.44c-1.573 1.68-4.24 1.68-5.827 0l-1.347-1.44c-.693-.52-1.067-.8-2.4-.8z" />
      <path stroke-linecap="round" stroke-linejoin="round" stroke-miterlimit="10" stroke-width="2" d="M6.667 16v-5.333c0-2.68 0-4.893 4-5.28M25.333 16v-5.333c0-2.68 0-4.893-4-5.28" />
    </symbol>
    <symbol id="save-2" viewBox="0 0 32 32">
      <path d="M23 4H9a2 2 0 0 0-2 2v22a.994.994 0 0 0 .516.874.993.993 0 0 0 1.015-.027l7.47-4.669 7.471 4.669a1.006 1.006 0 0 0 1.013.026.999.999 0 0 0 .516-.874v-22a2 2 0 0 0-2-2zm0 22.196-6.471-4.044a1.004 1.004 0 0 0-1.06 0L9 26.196V6h14v20.196z" style="fill:var(--color1, #fff)"/>
    </symbol>
    <symbol id="search" viewBox="0 0 32 32">
        <path stroke-linecap="round" stroke-linejoin="round" stroke-width="3" d="M14.375 4c5.73 0 10.375 4.645 10.375 10.375S20.105 24.75 14.375 24.75 4 20.105 4 14.375 8.645 4 14.375 4ZM27.5 27.5 25 25"/>    </symbol>
    <symbol id="setting" viewBox="0 0 32 32">
      <path stroke-linecap="round" stroke-linejoin="round" stroke-miterlimit="10" stroke-width="2" d="M6.667 13.333h2.667c2.667 0 4-1.333 4-4V6.666c0-2.667-1.333-4-4-4H6.667c-2.667 0-4 1.333-4 4v2.667c0 2.667 1.333 4 4 4zM22.667 13.333h2.667c2.667 0 4-1.333 4-4V6.666c0-2.667-1.333-4-4-4h-2.667c-2.667 0-4 1.333-4 4v2.667c0 2.667 1.333 4 4 4zM22.667 29.333h2.667c2.667 0 4-1.333 4-4v-2.667c0-2.667-1.333-4-4-4h-2.667c-2.667 0-4 1.333-4 4v2.667c0 2.667 1.333 4 4 4zM6.667 29.333h2.667c2.667 0 4-1.333 4-4v-2.667c0-2.667-1.333-4-4-4H6.667c-2.667 0-4 1.333-4 4v2.667c0 2.667 1.333 4 4 4z" />
    </symbol>
    <symbol id="share-network" viewBox="0 0 32 32">
      <path d="M22 20a4.985 4.985 0 0 0-3.578 1.511l-5.763-3.704a4.978 4.978 0 0 0 0-3.615l5.763-3.704a5.002 5.002 0 0 0 6.693.418 5.001 5.001 0 0 0-1.813-8.737 5 5 0 0 0-5.964 6.639l-5.762 3.704a5 5 0 1 0 0 6.977l5.762 3.704A5 5 0 1 0 21.998 20zm0-16a3 3 0 0 1 .586 5.942 2.997 2.997 0 0 1-3.079-1.276 2.996 2.996 0 0 1 .373-3.788 3.004 3.004 0 0 1 2.121-.879zM8 19a3 3 0 0 1-.586-5.942 2.997 2.997 0 0 1 3.079 1.276 2.996 2.996 0 0 1-.373 3.788 3.004 3.004 0 0 1-2.121.879zm14 9a3 3 0 0 1-.586-5.942 2.997 2.997 0 0 1 3.079 1.276 2.996 2.996 0 0 1-.373 3.788 3.004 3.004 0 0 1-2.121.879z" style="fill:var(--color1, #fff)"/>
    </symbol>
    <symbol id="star" viewBox="0 0 32 32">
      <path d="M29.897 12.158a2.054 2.054 0 0 0-1.782-1.408l-7.375-.595-2.847-6.886a2.046 2.046 0 0 0-3.784 0l-2.845 6.885-7.379.596a2.058 2.058 0 0 0-1.171 3.608l5.625 4.854-1.714 7.258a2.039 2.039 0 0 0 .785 2.139 2.047 2.047 0 0 0 2.277.088L16 24.812l6.316 3.885a2.05 2.05 0 0 0 3.058-2.227l-1.72-7.259 5.625-4.854a2.053 2.053 0 0 0 .618-2.199zm-1.917.683-6.087 5.25a1.004 1.004 0 0 0-.32.989l1.86 7.85c.005.011.005.023.001.034s-.012.02-.023.026c-.022.017-.029.014-.047 0l-6.84-4.206a.998.998 0 0 0-1.048 0l-6.84 4.209c-.019.011-.024.015-.047 0-.011-.005-.019-.015-.023-.026s-.003-.023.001-.034l1.86-7.85a1.001 1.001 0 0 0-.32-.989l-6.088-5.25c-.015-.012-.029-.024-.016-.063s.022-.034.041-.036l7.99-.645a1.003 1.003 0 0 0 .84-.618l3.078-7.451c.01-.021.014-.031.044-.031s.034.01.044.031l3.085 7.451a.994.994 0 0 0 .844.615l7.99.645c.019 0 .03 0 .041.036s0 .05-.02.063z" style="fill:var(--color1, #fff)"/>
    </symbol>
    <symbol id="close" viewBox="0 0 32 32">
      <path d="M25.707 24.293a.991.991 0 0 1 .293.708 1.01 1.01 0 0 1-.293.708.991.991 0 0 1-.708.293 1.006 1.006 0 0 1-.708-.293l-8.293-8.294-8.293 8.294a1 1 0 1 1-1.414-1.414l8.294-8.293-8.294-8.293a1 1 0 1 1 1.414-1.414l8.293 8.294 8.293-8.294a1 1 0 1 1 1.414 1.414l-8.294 8.293 8.294 8.293z" style="fill:var(--color1, #fff)"/>
    </symbol>
  </defs>
</svg>
